<svg xmlns="http://www.w3.org/2000/svg" viewBox="0 0 160 200" width="160" height="200" role="img" aria-label="Web3 shield block logo">
  <defs>
    <linearGradient id="gC" x1="0" x2="1" y1="0" y2="1">
      <stop offset="0" stop-color="#0EB2FF"/>
      <stop offset="1" stop-color="#0066CC"/>
    </linearGradient>
  </defs>
  <path d="M80 8 L140 36 v60 c0 44 -44 80 -60 96 -16 -16 -60 -52 -60 -96 V36 Z" fill="url(#gC)"/>
  <g transform="translate(44,56)" fill="white" opacity="0.95">
    <rect width="18" height="18" x="0" y="0" rx="2"/>
    <rect width="18" height="18" x="22" y="0" rx="2"/>
    <rect width="18" height="18" x="44" y="0" rx="2"/>
    <rect width="18" height="18" x="0" y="22" rx="2"/>
    <rect width="18" height="18" x="22" y="22" rx="2"/>
    <rect width="18" height="18" x="44" y="22" rx="2"/>
    <rect width="18" height="18" x="0" y="44" rx="2"/>
    <rect width="18" height="18" x="22" y="44" rx="2"/>
    <rect width="18" height="18" x="44" y="44" rx="2"/>
  </g>
</svg>

